<mxfile host="app.diagrams.net" agent="Mozilla/5.0 (Windows NT 10.0; Win64; x64) AppleWebKit/537.36 (KHTML, like Gecko) Chrome/131.0.0.0 Safari/537.36" version="24.8.6">
  <diagram name="Page-1" id="9qrFSn9xMdAXCKFMjhM1">
    <mxGraphModel dx="1050" dy="625" grid="1" gridSize="10" guides="1" tooltips="1" connect="1" arrows="1" fold="1" page="1" pageScale="1" pageWidth="850" pageHeight="1100" math="0" shadow="0">
      <root>
        <mxCell id="0" />
        <mxCell id="1" parent="0" />
        <mxCell id="1Gy0aGjUad5HKDdpVex1-4" value="" style="edgeStyle=orthogonalEdgeStyle;rounded=0;orthogonalLoop=1;jettySize=auto;html=1;" edge="1" parent="1" source="1Gy0aGjUad5HKDdpVex1-1" target="1Gy0aGjUad5HKDdpVex1-3">
          <mxGeometry relative="1" as="geometry" />
        </mxCell>
        <mxCell id="1Gy0aGjUad5HKDdpVex1-1" value="Start" style="ellipse;whiteSpace=wrap;html=1;aspect=fixed;" vertex="1" parent="1">
          <mxGeometry x="385" y="30" width="80" height="80" as="geometry" />
        </mxCell>
        <mxCell id="1Gy0aGjUad5HKDdpVex1-7" value="" style="edgeStyle=orthogonalEdgeStyle;rounded=0;orthogonalLoop=1;jettySize=auto;html=1;" edge="1" parent="1" source="1Gy0aGjUad5HKDdpVex1-3" target="1Gy0aGjUad5HKDdpVex1-6">
          <mxGeometry relative="1" as="geometry" />
        </mxCell>
        <mxCell id="1Gy0aGjUad5HKDdpVex1-3" value="Nhập điểm" style="shape=parallelogram;perimeter=parallelogramPerimeter;whiteSpace=wrap;html=1;fixedSize=1;" vertex="1" parent="1">
          <mxGeometry x="365" y="200" width="120" height="60" as="geometry" />
        </mxCell>
        <mxCell id="1Gy0aGjUad5HKDdpVex1-9" value="" style="edgeStyle=orthogonalEdgeStyle;rounded=0;orthogonalLoop=1;jettySize=auto;html=1;" edge="1" parent="1" source="1Gy0aGjUad5HKDdpVex1-6" target="1Gy0aGjUad5HKDdpVex1-8">
          <mxGeometry relative="1" as="geometry" />
        </mxCell>
        <mxCell id="1Gy0aGjUad5HKDdpVex1-11" value="" style="edgeStyle=orthogonalEdgeStyle;rounded=0;orthogonalLoop=1;jettySize=auto;html=1;" edge="1" parent="1" source="1Gy0aGjUad5HKDdpVex1-6" target="1Gy0aGjUad5HKDdpVex1-10">
          <mxGeometry relative="1" as="geometry" />
        </mxCell>
        <mxCell id="1Gy0aGjUad5HKDdpVex1-6" value="0&amp;lt;=điểm &amp;lt;= 10" style="rhombus;whiteSpace=wrap;html=1;" vertex="1" parent="1">
          <mxGeometry x="370" y="330" width="110" height="80" as="geometry" />
        </mxCell>
        <mxCell id="1Gy0aGjUad5HKDdpVex1-8" value="điểm không thỏa mãn" style="shape=parallelogram;perimeter=parallelogramPerimeter;whiteSpace=wrap;html=1;fixedSize=1;" vertex="1" parent="1">
          <mxGeometry x="555" y="340" width="145" height="60" as="geometry" />
        </mxCell>
        <mxCell id="1Gy0aGjUad5HKDdpVex1-13" value="" style="edgeStyle=orthogonalEdgeStyle;rounded=0;orthogonalLoop=1;jettySize=auto;html=1;" edge="1" parent="1" source="1Gy0aGjUad5HKDdpVex1-10" target="1Gy0aGjUad5HKDdpVex1-12">
          <mxGeometry relative="1" as="geometry" />
        </mxCell>
        <mxCell id="1Gy0aGjUad5HKDdpVex1-17" value="" style="edgeStyle=orthogonalEdgeStyle;rounded=0;orthogonalLoop=1;jettySize=auto;html=1;" edge="1" parent="1" source="1Gy0aGjUad5HKDdpVex1-10" target="1Gy0aGjUad5HKDdpVex1-16">
          <mxGeometry relative="1" as="geometry" />
        </mxCell>
        <mxCell id="1Gy0aGjUad5HKDdpVex1-10" value="5 &amp;lt;= điểm&amp;nbsp;" style="rhombus;whiteSpace=wrap;html=1;" vertex="1" parent="1">
          <mxGeometry x="370" y="490" width="110" height="80" as="geometry" />
        </mxCell>
        <mxCell id="1Gy0aGjUad5HKDdpVex1-15" value="" style="edgeStyle=orthogonalEdgeStyle;rounded=0;orthogonalLoop=1;jettySize=auto;html=1;" edge="1" parent="1" source="1Gy0aGjUad5HKDdpVex1-12" target="1Gy0aGjUad5HKDdpVex1-14">
          <mxGeometry relative="1" as="geometry" />
        </mxCell>
        <mxCell id="1Gy0aGjUad5HKDdpVex1-12" value="điểm &amp;lt;= 5" style="rhombus;whiteSpace=wrap;html=1;" vertex="1" parent="1">
          <mxGeometry x="180" y="490" width="110" height="80" as="geometry" />
        </mxCell>
        <mxCell id="1Gy0aGjUad5HKDdpVex1-14" value="Không đạt" style="shape=parallelogram;perimeter=parallelogramPerimeter;whiteSpace=wrap;html=1;fixedSize=1;" vertex="1" parent="1">
          <mxGeometry x="175" y="660" width="120" height="60" as="geometry" />
        </mxCell>
        <mxCell id="1Gy0aGjUad5HKDdpVex1-16" value="Đạt" style="shape=parallelogram;perimeter=parallelogramPerimeter;whiteSpace=wrap;html=1;fixedSize=1;" vertex="1" parent="1">
          <mxGeometry x="365" y="660" width="120" height="60" as="geometry" />
        </mxCell>
        <mxCell id="1Gy0aGjUad5HKDdpVex1-18" value="S" style="text;html=1;align=center;verticalAlign=middle;resizable=0;points=[];autosize=1;strokeColor=none;fillColor=none;" vertex="1" parent="1">
          <mxGeometry x="505" y="338" width="30" height="30" as="geometry" />
        </mxCell>
        <mxCell id="1Gy0aGjUad5HKDdpVex1-19" value="Đ" style="text;html=1;align=center;verticalAlign=middle;resizable=0;points=[];autosize=1;strokeColor=none;fillColor=none;" vertex="1" parent="1">
          <mxGeometry x="395" y="438" width="30" height="30" as="geometry" />
        </mxCell>
        <mxCell id="1Gy0aGjUad5HKDdpVex1-22" value="S" style="text;html=1;align=center;verticalAlign=middle;resizable=0;points=[];autosize=1;strokeColor=none;fillColor=none;" vertex="1" parent="1">
          <mxGeometry x="315" y="498" width="30" height="30" as="geometry" />
        </mxCell>
        <mxCell id="1Gy0aGjUad5HKDdpVex1-23" value="Đ" style="text;html=1;align=center;verticalAlign=middle;resizable=0;points=[];autosize=1;strokeColor=none;fillColor=none;" vertex="1" parent="1">
          <mxGeometry x="425" y="598" width="30" height="30" as="geometry" />
        </mxCell>
        <mxCell id="1Gy0aGjUad5HKDdpVex1-24" value="Đ" style="text;html=1;align=center;verticalAlign=middle;resizable=0;points=[];autosize=1;strokeColor=none;fillColor=none;" vertex="1" parent="1">
          <mxGeometry x="235" y="598" width="30" height="30" as="geometry" />
        </mxCell>
      </root>
    </mxGraphModel>
  </diagram>
</mxfile>
